<svg xmlns="http://www.w3.org/2000/svg" xmlns:xlink="http://www.w3.org/1999/xlink" width="24pt" height="24pt" viewBox="0 0 24 24" version="1.1">
	<g id="surface1">
		<path style=" stroke:none;fill-rule:nonzero;fill:rgb(0%,0%,0%);fill-opacity:1;" d="M 3.351562 9.078125 L 12.476562 9.078125 C 12.75 9.078125 12.976562 8.855469 12.976562 8.578125 C 12.976562 8.300781 12.75 8.078125 12.476562 8.078125 L 3.351562 8.078125 C 3.074219 8.078125 2.851562 8.300781 2.851562 8.578125 C 2.851562 8.855469 3.074219 9.078125 3.351562 9.078125 Z M 3.351562 9.078125 "/>
		<path style=" stroke:none;fill-rule:nonzero;fill:rgb(0%,0%,0%);fill-opacity:1;" d="M 3.351562 11.359375 L 12.476562 11.359375 C 12.75 11.359375 12.976562 11.136719 12.976562 10.859375 C 12.976562 10.582031 12.75 10.359375 12.476562 10.359375 L 3.351562 10.359375 C 3.074219 10.359375 2.851562 10.582031 2.851562 10.859375 C 2.851562 11.136719 3.074219 11.359375 3.351562 11.359375 Z M 3.351562 11.359375 "/>
		<path style=" stroke:none;fill-rule:nonzero;fill:rgb(0%,0%,0%);fill-opacity:1;" d="M 10.410156 13.140625 C 10.410156 12.863281 10.1875 12.640625 9.910156 12.640625 L 3.351562 12.640625 C 3.074219 12.640625 2.851562 12.863281 2.851562 13.140625 C 2.851562 13.417969 3.074219 13.640625 3.351562 13.640625 L 9.910156 13.640625 C 10.1875 13.640625 10.410156 13.417969 10.410156 13.140625 Z M 10.410156 13.140625 "/>
		<path style=" stroke:none;fill-rule:nonzero;fill:rgb(0%,0%,0%);fill-opacity:1;" d="M 23.871094 9.621094 L 20.652344 6.042969 C 20.46875 5.835938 20.152344 5.820312 19.945312 6.003906 L 17.558594 8.148438 L 15.828125 9.707031 L 15.828125 5.726562 C 15.828125 5.574219 15.753906 5.425781 15.632812 5.332031 L 10.5 1.339844 C 10.496094 1.335938 10.488281 1.332031 10.484375 1.328125 C 10.480469 1.324219 10.476562 1.320312 10.46875 1.316406 C 10.460938 1.3125 10.453125 1.308594 10.441406 1.300781 C 10.433594 1.296875 10.425781 1.292969 10.421875 1.289062 C 10.410156 1.285156 10.402344 1.28125 10.394531 1.277344 C 10.386719 1.273438 10.378906 1.269531 10.371094 1.269531 C 10.367188 1.265625 10.359375 1.261719 10.351562 1.261719 C 10.34375 1.257812 10.335938 1.257812 10.328125 1.253906 C 10.320312 1.253906 10.3125 1.25 10.304688 1.25 C 10.300781 1.246094 10.292969 1.246094 10.285156 1.242188 C 10.277344 1.242188 10.265625 1.242188 10.257812 1.238281 C 10.253906 1.238281 10.246094 1.238281 10.242188 1.238281 C 10.226562 1.234375 10.210938 1.234375 10.195312 1.234375 L 0.5 1.234375 C 0.222656 1.234375 0 1.460938 0 1.734375 L 0 22.265625 C 0 22.539062 0.222656 22.765625 0.5 22.765625 L 15.328125 22.765625 C 15.601562 22.765625 15.828125 22.539062 15.828125 22.265625 L 15.828125 17.527344 L 21.445312 12.472656 L 23.835938 10.328125 C 23.933594 10.238281 23.992188 10.117188 24 9.984375 C 24.007812 9.851562 23.960938 9.722656 23.871094 9.621094 Z M 14.128906 5.429688 L 10.710938 5.917969 L 10.699219 2.761719 Z M 1 21.765625 L 1 2.234375 L 9.695312 2.234375 L 9.710938 6.496094 C 9.714844 6.640625 9.777344 6.777344 9.886719 6.871094 C 9.976562 6.949219 10.09375 6.992188 10.210938 6.992188 C 10.234375 6.992188 10.257812 6.992188 10.28125 6.988281 L 14.828125 6.339844 L 14.828125 10.605469 L 10.398438 14.589844 C 10.390625 14.59375 10.382812 14.601562 10.375 14.609375 C 10.375 14.613281 10.367188 14.617188 10.367188 14.621094 C 10.351562 14.632812 10.339844 14.648438 10.328125 14.664062 C 10.316406 14.679688 10.304688 14.699219 10.296875 14.714844 C 10.292969 14.71875 10.292969 14.722656 10.289062 14.726562 C 10.28125 14.742188 10.277344 14.753906 10.269531 14.769531 C 10.269531 14.773438 10.265625 14.773438 10.265625 14.777344 L 8.296875 19.789062 C 8.226562 19.964844 8.261719 20.167969 8.386719 20.308594 C 8.484375 20.414062 8.621094 20.472656 8.761719 20.472656 C 8.804688 20.472656 8.847656 20.46875 8.894531 20.453125 L 14.082031 19.023438 C 14.085938 19.023438 14.085938 19.023438 14.085938 19.023438 C 14.101562 19.019531 14.121094 19.011719 14.140625 19.003906 C 14.144531 19.003906 14.148438 19 14.152344 19 C 14.167969 18.992188 14.179688 18.988281 14.195312 18.980469 C 14.199219 18.976562 14.203125 18.976562 14.207031 18.972656 C 14.222656 18.964844 14.238281 18.953125 14.253906 18.941406 C 14.253906 18.9375 14.257812 18.9375 14.257812 18.933594 C 14.269531 18.929688 14.277344 18.921875 14.285156 18.914062 L 14.828125 18.429688 L 14.828125 21.765625 Z M 10.902344 15.898438 L 11.859375 16.964844 L 13.039062 18.273438 L 9.589844 19.226562 Z M 13.988281 17.835938 L 12.074219 15.707031 L 11.4375 14.996094 L 17.855469 9.226562 L 18.707031 10.171875 L 20.40625 12.066406 Z M 21.148438 11.394531 L 19.777344 9.867188 L 18.597656 8.558594 L 20.242188 7.082031 L 22.792969 9.917969 Z M 21.148438 11.394531 "/>
	</g>
</svg>
